<?xml version="1.0" standalone="no"?>
<!DOCTYPE svg PUBLIC "-//W3C//DTD SVG 20010904//EN"
 "http://www.w3.org/TR/2001/REC-SVG-20010904/DTD/svg10.dtd">
<svg version="1.0" xmlns="http://www.w3.org/2000/svg"
 width="348.000000pt" height="348.000000pt" viewBox="0 0 348.000000 348.000000"
 preserveAspectRatio="xMidYMid meet">

<g transform="translate(0.000000,348.000000) scale(0.100000,-0.100000)"
fill="#000000" stroke="none">
<path d="M40 1735 l0 -1695 1695 0 1695 0 0 1695 0 1695 -1695 0 -1695 0 0
-1695z m3370 0 l0 -1675 -1675 0 -1675 0 0 1675 0 1675 1675 0 1675 0 0 -1675z"/>
<path d="M2945 3230 c-46 -10 -79 -35 -103 -79 -56 -98 4 -215 119 -236 72
-13 168 53 184 126 25 111 -85 215 -200 189z m114 -39 c95 -67 90 -187 -10
-239 -97 -51 -209 14 -209 121 0 67 31 109 97 132 44 15 88 10 122 -14z"/>
<path d="M347 3152 c-16 -17 -17 -131 -17 -1429 0 -1353 1 -1411 18 -1426 17
-15 63 -17 454 -17 409 0 436 1 451 18 16 17 17 131 17 1429 0 1353 -1 1411
-18 1426 -17 15 -63 17 -454 17 -409 0 -436 -1 -451 -18z m862 -619 c0 -424
-3 -570 -11 -548 -20 56 -77 134 -117 161 -151 100 -324 -77 -324 -331 0 -254
173 -431 324 -331 40 27 97 105 117 161 8 22 11 -150 11 -637 l1 -668 -410 0
-410 0 0 1385 0 1385 410 0 410 0 -1 -577z m-159 -428 c160 -83 160 -497 0
-580 -125 -64 -240 75 -240 290 0 215 115 355 240 290z"/>
<path d="M2057 3132 c-16 -17 -17 -131 -17 -1439 0 -1363 1 -1421 18 -1436 17
-15 55 -17 344 -17 302 0 326 1 341 18 16 17 17 131 17 1439 0 1363 -1 1421
-18 1436 -17 15 -55 17 -344 17 -302 0 -326 -1 -341 -18z m643 -1437 l0 -1395
-300 0 -300 0 0 658 1 657 25 -50 c48 -93 107 -137 184 -137 106 0 192 99 220
251 37 208 -108 422 -259 381 -51 -13 -114 -73 -145 -135 l-25 -50 -1 608 0
607 300 0 300 0 0 -1395z m-330 300 c68 -35 110 -130 110 -250 0 -85 -18 -153
-55 -200 -86 -113 -225 -71 -271 81 -18 60 -18 177 0 237 35 118 130 176 216
132z"/>
<path d="M1377 3012 c-15 -17 -17 -62 -17 -449 0 -404 1 -431 18 -446 16 -15
51 -17 279 -17 239 0 261 1 276 18 15 17 17 62 17 449 0 404 -1 431 -18 446
-16 15 -51 17 -279 17 -239 0 -261 -1 -276 -18z m513 -447 l0 -405 -235 0
-235 0 0 405 0 405 235 0 235 0 0 -405z"/>
<path d="M1678 2913 c-10 -2 -18 -8 -18 -13 0 -5 -43 -46 -95 -92 -52 -45 -95
-85 -95 -88 0 -3 6 -14 13 -24 11 -16 20 -11 95 54 l82 71 -6 -208 c-3 -114
-7 -213 -9 -220 -3 -8 -31 -13 -77 -15 -70 -3 -73 -4 -73 -28 l0 -25 183 -3
182 -2 0 30 0 30 -81 0 -81 0 7 238 c4 130 11 245 16 254 6 11 4 22 -7 32 -8
9 -16 15 -17 15 -1 -1 -10 -3 -19 -6z"/>
<path d="M1397 1382 c-15 -17 -17 -68 -17 -524 0 -476 1 -506 18 -521 16 -15
50 -17 269 -17 229 0 251 1 266 18 15 17 17 68 17 524 0 476 -1 506 -18 521
-16 15 -50 17 -269 17 -229 0 -251 -1 -266 -18z m493 -522 l0 -480 -225 0
-225 0 0 480 0 480 225 0 225 0 0 -480z"/>
<path d="M1512 1153 c3 -24 8 -28 38 -30 19 -2 63 -6 98 -9 l62 -6 0 -123 0
-122 -31 -7 c-17 -3 -56 -6 -85 -6 l-54 0 0 -175 0 -176 113 3 112 3 0 25 c0
25 -2 25 -87 28 l-88 3 0 119 0 120 53 1 c28 1 68 2 87 3 l35 1 3 177 2 176
-87 6 c-49 4 -107 9 -131 12 -43 5 -43 5 -40 -23z"/>
</g>
</svg>
